<svg xmlns="http://www.w3.org/2000/svg" width="16" height="16" class="bi bi-bar-chart-line"><path fill="#FF4D4D" d="M1 10.5A1.5 1.5 0 0 1 2.5 9h1A1.5 1.5 0 0 1 5 10.5V14H1zM2 14h2v-3.5a.5.5 0 0 0-.5-.5h-1a.5.5 0 0 0-.5.5z"/><path fill="orange" d="M6 6.5A1.5 1.5 0 0 1 7.5 5h1A1.5 1.5 0 0 1 10 6.5V14H6zM7 14h2V6.5a.5.5 0 0 0-.5-.5h-1a.5.5 0 0 0-.5.5z"/><path fill="#70E000" d="M11 2.5A1.5 1.5 0 0 1 12.5 1h1A1.5 1.5 0 0 1 15 2.5V14h-4zM12 14h2V2.5a.5.5 0 0 0-.5-.5h-1a.5.5 0 0 0-.5.5z"/><path d="M.5 14.5h15a.5.5 0 0 1 0 1H.5a.5.5 0 0 1 0-1"/></svg>